<?xml version="1.0" standalone="no"?>
<!DOCTYPE svg PUBLIC "-//W3C//DTD SVG 20010904//EN"
 "http://www.w3.org/TR/2001/REC-SVG-20010904/DTD/svg10.dtd">
<svg version="1.0" xmlns="http://www.w3.org/2000/svg"
 width="500.000000pt" height="500.000000pt" viewBox="0 0 500.000000 500.000000"
 preserveAspectRatio="xMidYMid meet">
<metadata>
Created by potrace 1.16, written by Peter Selinger 2001-2019
</metadata>
<g transform="translate(0.000000,500.000000) scale(0.100000,-0.100000)"
fill="#000000" stroke="none">
<path d="M2315 4674 c-157 -9 -331 -43 -490 -96 -109 -36 -307 -129 -355 -166
-19 -15 -53 -36 -74 -47 -59 -30 -229 -200 -284 -286 -57 -86 -81 -141 -114
-254 -33 -117 -31 -305 5 -425 34 -115 56 -172 73 -191 8 -8 14 -20 14 -26 0
-6 35 -50 77 -99 42 -48 84 -102 93 -118 22 -42 105 -179 148 -244 20 -29 46
-75 58 -102 12 -27 45 -84 73 -128 28 -43 51 -82 51 -86 0 -8 49 -85 71 -111
9 -11 31 -47 49 -80 18 -33 45 -78 60 -100 15 -22 49 -81 76 -130 26 -50 58
-104 71 -121 13 -17 23 -35 23 -39 0 -4 26 -49 58 -99 32 -50 61 -98 64 -107
10 -26 100 -164 109 -167 5 -2 9 -12 9 -23 0 -15 -7 -19 -37 -19 -88 0 -288
-25 -518 -65 -119 -20 -333 -84 -420 -125 -85 -41 -151 -94 -165 -133 -16 -46
-13 -311 4 -350 17 -39 72 -92 106 -102 14 -4 53 -20 88 -36 35 -16 66 -29 70
-29 3 0 56 -15 117 -34 152 -46 210 -57 515 -97 143 -19 214 -22 540 -22 450
-1 634 17 985 95 58 13 217 64 243 77 9 5 44 20 76 32 74 28 140 89 155 144
13 48 15 274 2 307 -15 40 -64 86 -131 123 -57 33 -170 78 -225 92 -11 2 -29
8 -40 13 -11 4 -54 15 -95 23 -248 53 -508 87 -667 87 -63 0 -83 3 -83 13 0 8
23 52 51 98 28 46 68 113 89 149 21 36 80 133 132 215 52 83 102 166 112 185
73 140 101 188 160 276 22 33 49 77 61 99 35 66 115 195 165 270 26 39 64 104
84 145 24 50 57 98 101 143 84 88 159 185 191 250 64 126 101 301 89 427 -8
83 -52 237 -83 290 -12 19 -33 56 -48 83 -15 26 -31 47 -36 47 -4 0 -8 4 -8
10 0 32 -198 221 -290 278 -88 54 -225 126 -260 137 -14 4 -47 18 -75 30 -79
36 -246 79 -400 104 -67 11 -327 20 -420 15z m745 -593 l0 -189 -30 30 -30 30
0 159 0 159 30 0 30 0 0 -189z m-1190 23 c0 -126 -2 -138 -22 -164 -13 -15
-28 -36 -35 -46 -9 -15 -12 18 -12 164 l-1 182 35 0 35 0 0 -136z m605 91
c147 -9 192 -22 242 -72 39 -38 66 -104 50 -119 -3 -4 -38 -1 -77 6 -82 14
-498 19 -577 7 -51 -7 -53 -7 -53 16 0 32 26 118 44 142 9 13 32 22 67 26 52
7 87 6 304 -6z m-605 -571 c0 -192 0 -196 -25 -227 -13 -18 -28 -44 -34 -57
-7 -18 -10 51 -10 228 l-1 252 35 0 35 0 0 -196z m1190 -31 l0 -227 -30 29
-30 29 0 192 0 193 28 4 c15 2 28 5 30 6 1 0 2 -101 2 -226z m-611 46 c80 -6
169 -17 196 -24 61 -17 109 -57 130 -109 16 -37 15 -38 -2 -32 -10 4 -110 14
-223 22 -188 13 -271 13 -417 -2 -48 -5 -53 -3 -53 14 0 39 42 122 64 127 73
16 134 17 305 4z m201 -2660 c210 -19 354 -56 289 -73 -181 -49 -239 -56 -462
-56 -210 0 -315 12 -451 51 -46 13 -39 22 34 42 149 41 383 55 590 36z m696
-8 c72 -23 114 -42 114 -51 0 -10 -147 -70 -170 -70 -6 0 -10 31 -10 70 0 39
2 70 4 70 2 0 30 -9 62 -19z"/>
</g>
</svg>
