<?xml version="1.0" standalone="no"?>
<!DOCTYPE svg PUBLIC "-//W3C//DTD SVG 20010904//EN"
 "http://www.w3.org/TR/2001/REC-SVG-20010904/DTD/svg10.dtd">
<svg version="1.0" xmlns="http://www.w3.org/2000/svg"
 width="5936.000000pt" height="1517.000000pt" viewBox="0 0 5936.000000 1517.000000"
 preserveAspectRatio="xMidYMid meet">
<metadata>
Created by potrace 1.16, written by Peter Selinger 2001-2019
</metadata>
<g transform="translate(0.000000,1517.000000) scale(0.100000,-0.100000)"
fill="#000000" stroke="none">
<path d="M10023 12709 c-849 -37 -1686 -190 -2480 -454 -398 -132 -922 -348
-915 -377 4 -14 850 -1588 862 -1601 4 -4 59 15 123 42 501 215 1075 380 1635
471 l73 12 1187 898 c652 495 1188 898 1189 896 1 -1 -148 -656 -331 -1455
l-334 -1453 30 -96 c43 -145 112 -425 153 -621 61 -298 125 -803 125 -992 0
-35 4 -70 9 -77 6 -10 231 -28 912 -72 497 -33 908 -60 913 -60 12 0 0 359
-19 580 -104 1178 -430 2298 -996 3420 -120 239 -428 801 -453 827 -11 12
-426 74 -616 93 -287 27 -707 35 -1067 19z"/>
<path d="M5539 11281 c-974 -645 -1824 -1494 -2485 -2481 -249 -372 -379 -599
-556 -975 l-117 -249 126 -246 c229 -444 416 -772 629 -1097 635 -971 1420
-1799 2313 -2438 90 -64 164 -115 165 -113 28 34 905 1603 899 1608 -4 4 -66
52 -138 105 -403 303 -793 676 -1155 1101 -35 41 -40 43 -1420 554 -762 282
-1391 516 -1397 519 -7 4 618 231 1389 505 l1402 499 100 106 c365 389 808
768 1218 1041 70 47 127 89 128 94 0 12 -864 1615 -871 1616 -3 0 -106 -67
-230 -149z"/>
<path d="M41310 10485 l0 -185 200 0 200 0 0 185 0 185 -200 0 -200 0 0 -185z"/>
<path d="M47379 10644 c-83 -25 -140 -73 -179 -149 l-35 -68 -3 -258 -3 -259
-105 0 -104 0 0 -155 0 -155 105 0 105 0 0 -865 0 -865 185 0 185 0 0 865 0
865 150 0 150 0 0 155 0 155 -150 0 -150 0 1 173 c0 203 8 237 59 254 19 7 81
12 138 12 l102 1 0 155 0 155 -202 -1 c-146 0 -216 -4 -249 -15z"/>
<path d="M32170 9180 l0 -1310 190 0 190 0 0 1310 0 1310 -190 0 -190 0 0
-1310z"/>
<path d="M17520 7480 l0 -3000 1195 0 c769 0 1230 4 1293 11 455 49 713 259
805 654 21 90 21 95 25 2260 2 1427 -1 2205 -7 2273 -46 454 -284 699 -761
783 -46 8 -434 13 -1307 16 l-1243 4 0 -3001z m2092 2182 c20 -7 50 -25 66
-41 60 -61 56 73 60 -2076 1 -1250 -1 -2002 -7 -2058 -12 -106 -31 -143 -92
-177 l-44 -25 -492 -3 -493 -3 0 2194 c0 1206 3 2197 7 2201 13 13 954 1 995
-12z"/>
<path d="M21630 7480 l0 -3000 1465 0 1465 0 0 420 0 420 -910 0 -910 0 0 905
0 905 735 0 735 0 0 425 0 425 -735 0 -735 0 0 830 0 830 870 0 870 0 0 420 0
420 -1425 0 -1425 0 0 -3000z"/>
<path d="M25110 10471 c0 -5 281 -666 624 -1470 l624 -1461 -659 -1527 c-362
-839 -659 -1528 -659 -1530 0 -2 263 -3 583 -3 l584 0 10 22 c5 13 176 483
379 1045 203 562 371 1019 373 1017 3 -2 171 -471 375 -1042 l371 -1037 608
-3 c334 -1 607 1 607 5 0 4 -306 693 -681 1530 l-681 1523 606 1463 c333 804
606 1466 606 1470 0 4 -265 7 -588 7 l-588 0 -308 -957 c-170 -527 -313 -970
-320 -985 -10 -25 -43 71 -327 955 l-316 982 -611 3 c-357 1 -612 -2 -612 -7z"/>
<path d="M15590 9995 l0 -475 565 0 565 0 0 475 0 475 -565 0 -565 0 0 -475z"/>
<path d="M40440 10085 l0 -175 -100 0 -100 0 0 -155 0 -155 100 0 100 0 2
-747 3 -748 28 -57 c34 -69 91 -120 166 -150 49 -19 80 -22 259 -26 l202 -4 0
161 0 161 -99 0 c-114 0 -159 12 -172 47 -5 14 -9 306 -9 694 l0 669 140 0
140 0 0 155 0 155 -140 0 -140 0 0 175 0 175 -190 0 -190 0 0 -175z"/>
<path d="M32980 8890 l0 -1020 190 0 190 0 0 818 c0 758 1 820 18 852 27 55
49 61 209 58 121 -3 145 -6 160 -21 17 -17 18 -67 21 -862 l2 -845 190 0 190
0 0 843 c0 496 -4 870 -10 910 -22 154 -113 248 -265 276 -75 14 -279 14 -344
0 -60 -13 -124 -56 -148 -101 l-18 -33 -3 73 -3 72 -189 0 -190 0 0 -1020z"/>
<path d="M34510 8890 l0 -1020 190 0 190 0 0 825 c0 897 -2 867 55 893 16 7
78 12 161 12 130 0 136 -1 159 -25 l25 -24 0 -841 0 -840 190 0 191 0 -3 898
-3 897 -33 67 c-38 77 -83 119 -162 150 -50 20 -73 22 -240 23 l-185 0 -53
-29 c-35 -20 -62 -44 -77 -70 l-25 -41 0 73 0 72 -190 0 -190 0 0 -1020z"/>
<path d="M36270 9896 c-145 -33 -227 -122 -250 -273 -7 -45 -10 -313 -8 -783
l3 -715 23 -57 c41 -102 126 -166 246 -189 37 -6 176 -9 375 -7 299 3 319 5
372 26 76 30 132 81 166 150 l28 57 3 759 c2 670 1 765 -13 814 -32 107 -96
175 -199 209 -43 14 -103 17 -371 19 -230 2 -335 0 -375 -10z m544 -297 c14
-7 30 -25 36 -42 6 -20 10 -248 10 -667 0 -419 -4 -647 -10 -667 -17 -47 -43
-53 -236 -53 -170 0 -176 1 -199 24 -17 17 -25 39 -30 87 -3 35 -5 334 -3 664
3 638 3 636 51 655 33 13 351 12 381 -1z"/>
<path d="M37416 9883 c3 -16 88 -473 188 -1018 l182 -990 272 -3 c150 -1 272
0 272 4 0 3 83 457 185 1008 102 552 185 1008 185 1015 0 8 -49 11 -187 9
l-187 -3 -127 -805 c-70 -443 -131 -825 -135 -850 -3 -25 -8 -40 -10 -35 -3 9
-264 1680 -264 1691 0 2 -85 4 -190 4 l-189 0 5 -27z"/>
<path d="M39130 9897 c-111 -25 -194 -95 -227 -192 -17 -46 -18 -111 -18 -825
0 -771 0 -775 21 -821 32 -69 86 -123 156 -155 62 -29 65 -29 253 -29 l190 0
53 29 c35 20 62 44 77 70 l25 41 0 -72 0 -73 190 0 190 0 0 1020 0 1020 -190
0 -190 0 0 -72 c-1 -59 -3 -69 -12 -53 -19 36 -62 76 -103 98 -35 19 -59 22
-200 24 -100 1 -181 -2 -215 -10z m479 -312 c16 -8 34 -28 40 -46 8 -22 11
-223 11 -649 0 -426 -3 -627 -11 -649 -18 -51 -50 -61 -202 -61 -154 0 -171 7
-187 75 -5 22 -10 305 -10 635 0 330 5 613 10 635 16 68 33 75 187 75 98 0
142 -4 162 -15z"/>
<path d="M41320 8890 l0 -1020 190 0 190 0 0 1020 0 1020 -190 0 -190 0 0
-1020z"/>
<path d="M42300 9897 c-149 -35 -226 -123 -250 -283 -12 -88 -13 -1353 0
-1451 20 -155 107 -250 258 -282 69 -14 608 -15 687 0 118 22 204 88 241 185
18 47 19 88 19 829 l0 780 -28 57 c-34 69 -90 120 -166 150 -53 21 -72 22
-381 25 -234 1 -340 -1 -380 -10z m550 -302 c20 -10 31 -25 35 -48 3 -17 5
-325 3 -684 -3 -610 -4 -653 -21 -670 -15 -16 -41 -18 -207 -21 l-190 -3 -25
25 -25 25 0 666 c0 452 3 673 11 686 17 33 46 38 222 38 131 1 174 -2 197 -14z"/>
<path d="M43610 8890 l0 -1020 190 0 190 0 2 836 3 836 33 29 32 29 140 0
c132 0 140 -1 167 -24 l28 -24 3 -841 3 -841 184 0 185 0 0 879 c0 862 0 880
-21 946 -26 86 -88 151 -175 186 -54 22 -73 23 -244 24 -171 0 -188 -2 -225
-22 -41 -22 -84 -62 -103 -98 -9 -16 -11 -6 -12 53 l0 72 -190 0 -190 0 0
-1020z"/>
<path d="M45350 9896 c-114 -25 -183 -78 -229 -175 l-26 -56 0 -340 0 -340 28
-60 c33 -70 57 -98 114 -131 69 -41 100 -46 319 -53 232 -7 237 -8 254 -70 14
-51 12 -407 -3 -451 -18 -53 -44 -61 -180 -58 -156 4 -157 5 -157 164 l0 114
-186 0 -186 0 4 -167 c3 -159 5 -171 31 -225 34 -69 90 -120 166 -150 51 -20
77 -22 299 -26 156 -2 267 0 309 8 120 21 200 78 245 175 22 48 23 61 26 365
2 208 0 332 -8 366 -14 67 -58 135 -111 174 -72 51 -123 62 -351 69 -180 5
-210 8 -225 24 -16 16 -18 43 -21 245 -2 125 0 242 3 260 9 51 52 64 186 60
149 -4 153 -8 158 -163 l3 -115 186 0 185 0 -6 148 c-6 167 -21 230 -70 294
-44 57 -108 95 -192 113 -88 19 -482 19 -565 1z"/>
<path d="M48300 9903 c-97 -16 -183 -67 -224 -132 -57 -90 -57 -80 -54 -907 3
-748 3 -760 24 -805 46 -98 125 -157 239 -178 79 -15 618 -14 687 0 148 32
235 120 258 265 14 84 13 1414 -1 1489 -27 147 -117 237 -264 264 -55 10 -608
14 -665 4z m536 -315 c9 -9 20 -36 25 -60 4 -23 8 -311 8 -638 0 -327 -4 -615
-8 -638 -15 -77 -16 -77 -236 -77 -173 0 -196 2 -212 18 -17 17 -18 59 -21
670 -3 688 -1 719 41 737 12 5 104 8 204 7 154 -2 185 -5 199 -19z"/>
<path d="M49580 8890 l0 -1020 190 0 190 0 0 728 c0 515 3 746 12 787 15 78
61 143 120 173 40 21 67 25 163 30 l115 5 0 160 0 159 -92 -4 c-78 -3 -101 -8
-145 -32 -64 -35 -104 -76 -142 -146 l-31 -55 0 118 0 117 -190 0 -190 0 0
-1020z"/>
<path d="M7861 8750 c-247 -65 -432 -239 -518 -485 -25 -73 -27 -93 -28 -225
0 -137 2 -150 32 -233 43 -122 86 -189 178 -282 140 -140 287 -205 480 -213
183 -7 331 33 457 123 26 19 54 35 61 35 19 0 116 -103 165 -176 55 -81 97
-171 123 -269 30 -107 32 -327 5 -424 -21 -76 -27 -69 104 -111 131 -41 224
-54 355 -47 377 19 697 231 860 568 228 472 57 1039 -394 1305 -153 89 -323
136 -506 136 -164 1 -317 -33 -457 -103 l-57 -29 -36 69 c-95 180 -280 320
-482 365 -98 22 -249 20 -342 -4z"/>
<path d="M15570 6620 l0 -2140 570 0 570 0 0 2140 0 2140 -570 0 -570 0 0
-2140z"/>
<path d="M35594 7229 c-79 -25 -152 -89 -185 -161 -23 -51 -24 -64 -27 -310
l-3 -258 -105 0 -104 0 0 -155 0 -155 105 0 105 0 0 -865 0 -865 185 0 185 0
0 865 0 865 150 0 150 0 0 155 0 155 -151 0 -151 0 4 188 c3 191 9 222 45 237
10 4 71 10 136 13 l117 4 0 154 0 154 -197 -1 c-168 0 -207 -3 -259 -20z"/>
<path d="M48690 5855 l0 -1395 190 0 190 0 0 1395 0 1395 -190 0 -190 0 0
-1395z"/>
<path d="M49440 5855 l0 -1395 185 0 185 0 0 1395 0 1395 -185 0 -185 0 0
-1395z"/>
<path d="M32150 5765 l0 -1306 523 3 c510 3 523 4 575 25 111 45 172 122 192
242 7 46 10 378 8 1081 l-3 1015 -28 60 c-36 78 -75 117 -151 152 l-61 28
-527 3 -528 3 0 -1306z m853 1004 c70 -19 67 30 67 -1002 0 -658 -3 -933 -11
-956 -7 -19 -22 -36 -36 -42 -13 -5 -130 -9 -259 -9 l-234 0 0 1010 0 1010
218 0 c122 0 234 -5 255 -11z"/>
<path d="M42900 5765 l0 -1305 565 0 565 0 0 150 0 150 -375 0 -375 0 0 450 0
450 300 0 300 0 0 150 0 150 -300 0 -300 0 0 405 0 405 360 0 360 0 0 150 0
150 -550 0 -550 0 0 -1305z"/>
<path d="M34099 6490 c-120 -21 -219 -98 -255 -201 -18 -51 -19 -94 -19 -819
l0 -765 33 -67 c38 -77 82 -118 162 -151 53 -21 67 -22 385 -22 368 0 391 3
477 69 88 68 118 164 118 383 l0 133 -185 0 -185 0 0 -104 c0 -118 -12 -163
-47 -177 -13 -5 -96 -9 -183 -9 -140 0 -160 2 -181 19 l-24 19 -3 281 -3 281
411 0 410 0 0 415 c0 268 -4 433 -11 467 -30 140 -122 222 -279 247 -74 12
-551 13 -621 1z m513 -318 c23 -22 23 -28 26 -277 l3 -255 -225 0 -226 0 0
245 c0 262 4 287 49 304 14 6 99 9 188 8 154 -2 164 -3 185 -25z"/>
<path d="M36514 6485 c-84 -18 -134 -46 -182 -100 -80 -91 -76 -50 -80 -865
-3 -509 0 -745 8 -791 21 -120 81 -197 192 -242 50 -20 73 -22 360 -25 339 -4
390 2 478 56 48 30 102 101 121 160 6 20 14 112 16 205 l5 167 -185 0 -185 0
-4 -125 c-4 -169 9 -160 -218 -160 -159 0 -181 2 -197 18 -16 16 -18 45 -21
297 l-3 280 411 0 411 0 -3 448 -3 447 -26 55 c-46 99 -115 150 -238 176 -89
19 -569 18 -657 -1z m504 -296 c47 -16 52 -45 52 -310 l0 -239 -225 0 -225 0
0 243 c0 259 4 281 50 304 31 16 304 18 348 2z"/>
<path d="M37760 5480 l0 -1020 190 0 190 0 0 818 c0 758 1 820 18 852 26 52
50 60 194 60 148 0 174 -8 188 -59 6 -23 10 -341 10 -853 l0 -818 185 0 185 0
-2 903 -3 902 -28 57 c-34 69 -91 120 -166 149 -70 27 -312 39 -404 20 -67
-14 -131 -59 -158 -111 l-19 -35 0 78 0 77 -190 0 -190 0 0 -1020z"/>
<path d="M39541 6489 c-153 -26 -245 -117 -271 -270 -8 -44 -10 -291 -8 -784
l3 -720 23 -57 c30 -75 95 -140 170 -170 56 -22 65 -23 392 -23 323 0 337 1
390 22 80 33 124 74 162 151 l33 67 3 197 4 198 -186 0 -186 0 0 -125 c0 -146
-12 -190 -57 -202 -15 -4 -91 -8 -168 -8 -161 0 -190 10 -200 67 -3 18 -5 322
-3 675 3 601 4 643 21 660 15 15 40 18 174 21 176 4 206 -3 222 -50 6 -17 11
-89 11 -159 l0 -129 185 0 185 0 0 170 c0 236 -17 306 -97 382 -47 46 -109 74
-193 87 -78 13 -532 12 -609 0z"/>
<path d="M41020 6489 c-115 -20 -199 -81 -244 -178 -21 -46 -21 -54 -21 -826
0 -743 1 -782 19 -829 26 -69 84 -128 159 -162 l62 -29 300 -3 c202 -3 319 0
360 8 115 23 194 80 237 175 21 45 23 68 26 228 l4 177 -181 0 -181 0 0 -87
c-1 -108 -12 -163 -41 -185 -18 -16 -44 -18 -185 -18 -158 0 -164 1 -191 24
l-28 24 -3 276 -3 276 416 0 416 0 -3 433 c-4 474 -6 490 -67 574 -37 51 -76
79 -149 106 -53 20 -79 21 -352 23 -162 2 -320 -2 -350 -7z m521 -318 c18 -21
19 -42 19 -277 l0 -254 -225 0 -225 0 1 233 c0 152 4 244 12 267 19 55 40 61
230 58 164 -3 169 -4 188 -27z"/>
<path d="M44204 6408 c23 -51 130 -276 236 -501 l193 -407 -138 -288 c-76
-158 -189 -392 -251 -519 l-113 -233 198 0 198 0 143 340 c79 188 146 343 150
345 4 3 74 -150 156 -340 l149 -345 198 0 c108 0 197 2 197 5 0 2 -112 235
-250 517 -137 281 -250 516 -250 521 0 5 88 199 196 430 108 232 212 455 230
495 l33 72 -197 0 -197 0 -124 -318 c-67 -176 -126 -324 -130 -331 -4 -7 -59
120 -126 291 -65 167 -124 315 -132 331 l-14 27 -199 0 -199 0 43 -92z"/>
<path d="M45978 6490 c-114 -19 -202 -83 -247 -180 l-26 -55 -3 -749 c-3 -820
-3 -822 56 -910 30 -45 103 -99 160 -118 49 -15 609 -23 685 -9 121 22 210 90
248 189 19 50 23 82 27 250 l4 192 -185 0 -184 0 -5 -137 c-3 -76 -9 -146 -13
-156 -12 -30 -44 -39 -150 -45 -138 -7 -211 3 -241 33 l-24 24 0 659 c0 634 1
661 19 683 18 23 26 24 162 27 243 6 242 6 247 -200 l4 -138 184 0 184 0 0
158 c0 87 -5 185 -11 217 -28 153 -118 238 -279 264 -74 12 -541 13 -612 1z"/>
<path d="M47444 6486 c-149 -34 -228 -117 -254 -267 -7 -44 -10 -291 -8 -784
l3 -720 24 -59 c30 -75 93 -137 169 -168 54 -21 72 -23 357 -26 202 -2 320 0
360 8 115 23 187 76 231 172 27 60 29 71 32 236 l4 172 -185 0 -185 0 -4 -126
c-4 -170 3 -164 -208 -164 -87 0 -170 4 -183 9 -42 16 -47 55 -47 332 l0 259
410 0 411 0 -3 448 -3 447 -33 68 c-38 77 -79 113 -171 149 -53 21 -72 22
-356 25 -226 2 -315 -1 -361 -11z m510 -297 c14 -7 30 -25 36 -42 6 -18 10
-128 10 -268 l0 -239 -225 0 -225 0 0 243 c0 259 4 281 50 304 33 17 319 18
354 2z"/>
<path d="M50451 6489 c-155 -26 -247 -119 -271 -276 -7 -45 -10 -313 -8 -783
l3 -715 23 -57 c30 -75 95 -140 170 -170 56 -22 65 -23 387 -23 361 0 379 2
461 58 103 69 134 156 134 379 l0 148 -184 0 -184 0 -4 -126 c-4 -170 3 -164
-208 -164 -87 0 -170 4 -183 9 -42 16 -47 55 -47 332 l0 259 410 0 410 0 0
428 c0 473 -2 488 -63 578 -40 60 -126 109 -217 123 -78 13 -552 12 -629 0z
m492 -300 c43 -20 47 -45 47 -304 l0 -245 -225 0 -225 0 0 243 c0 259 4 281
50 304 32 16 319 18 353 2z"/>
<path d="M51680 5480 l0 -1020 190 0 190 0 0 808 c0 535 4 820 11 845 17 64
51 77 201 77 70 0 138 -4 151 -9 14 -6 29 -23 36 -42 8 -23 11 -272 11 -855
l0 -824 190 0 190 0 0 843 c0 496 -4 870 -10 910 -17 116 -73 199 -167 246
-61 31 -171 44 -318 39 -170 -6 -222 -29 -282 -124 -10 -16 -12 -7 -12 54 l-1
72 -190 0 -190 0 0 -1020z"/>
<path d="M53460 6489 c-157 -27 -246 -121 -270 -285 -13 -91 -13 -1366 0
-1457 22 -154 111 -249 259 -277 82 -15 593 -13 662 4 106 24 180 83 223 176
18 40 21 68 24 248 l4 202 -186 0 -186 0 0 -129 c0 -206 0 -206 -215 -206
-170 0 -197 8 -209 66 -11 56 -7 1273 5 1307 16 47 46 54 222 50 134 -3 159
-6 174 -21 15 -15 18 -40 21 -167 l3 -150 185 0 185 0 -3 203 -3 203 -33 66
c-37 75 -82 115 -172 150 -52 21 -73 22 -345 24 -159 2 -315 -2 -345 -7z"/>
<path d="M54940 6489 c-81 -14 -168 -66 -208 -123 -64 -96 -63 -74 -60 -912 3
-748 3 -760 24 -805 45 -98 123 -156 239 -179 41 -8 156 -10 360 -8 338 5 358
8 442 82 85 75 112 169 113 394 l0 112 -184 0 -184 0 -3 -121 c-4 -118 -5
-121 -32 -145 -27 -23 -33 -24 -191 -24 -189 0 -202 5 -217 80 -4 25 -8 152
-9 283 l0 237 415 0 415 0 0 403 c0 248 -4 426 -11 462 -28 153 -118 238 -279
264 -78 13 -552 12 -630 0z m515 -310 c28 -28 35 -87 35 -316 l0 -223 -231 0
-231 0 4 248 c4 260 8 284 51 302 12 5 97 8 189 7 138 -2 170 -5 183 -18z"/>
</g>
</svg>
